<svg xmlns="http://www.w3.org/2000/svg" width="9.272" height="9.272" viewBox="0 0 9.272 9.272">
  <g id="instagram" transform="translate(0.2 0.2)">
    <g id="Сгруппировать_1285" data-name="Сгруппировать 1285">
      <g id="Сгруппировать_1284" data-name="Сгруппировать 1284">
        <path id="Контур_1209" data-name="Контур 1209" d="M6.3,0H2.577A2.58,2.58,0,0,0,0,2.577V6.3A2.58,2.58,0,0,0,2.577,8.872H6.3A2.58,2.58,0,0,0,8.872,6.3V2.577A2.58,2.58,0,0,0,6.3,0ZM8.179,6.3A1.886,1.886,0,0,1,6.3,8.179H2.577A1.886,1.886,0,0,1,.693,6.3V2.577A1.886,1.886,0,0,1,2.577.693H6.3A1.886,1.886,0,0,1,8.179,2.577Z" fill="#fff" stroke="#fff" stroke-width="0.4"/>
      </g>
    </g>
    <g id="Сгруппировать_1287" data-name="Сгруппировать 1287" transform="translate(2.045 2.045)">
      <g id="Сгруппировать_1286" data-name="Сгруппировать 1286">
        <path id="Контур_1210" data-name="Контур 1210" d="M120.391,118a2.391,2.391,0,1,0,2.391,2.391A2.394,2.394,0,0,0,120.391,118Zm0,4.09a1.7,1.7,0,1,1,1.7-1.7A1.7,1.7,0,0,1,120.391,122.09Z" transform="translate(-118 -118)" fill="#fff" stroke="#fff" stroke-width="0.4"/>
      </g>
    </g>
    <g id="Сгруппировать_1289" data-name="Сгруппировать 1289" transform="translate(6.516 1.664)">
      <g id="Сгруппировать_1288" data-name="Сгруппировать 1288">
        <circle id="Эллипс_91" data-name="Эллипс 91" cx="0.347" cy="0.347" r="0.347" fill="#fff" stroke="#fff" stroke-width="0.4"/>
      </g>
    </g>
  </g>
</svg>
